<svg xmlns="http://www.w3.org/2000/svg" viewBox="0 0 516 818.6"><defs><style>.cls-1{fill:#fff;}</style></defs><title>logo-whitea</title><g id="Layer_2" data-name="Layer 2"><g id="Layer_1-2" data-name="Layer 1"><g id="Layer_1-2-2" data-name="Layer 1-2"><path class="cls-1" d="M116,501.92a3.87,3.87,0,0,0-.35.45,1,1,0,0,0-.06.23V636.75a1.05,1.05,0,0,1-.06.24.62.62,0,0,1-.14.18l-.14.16H.77c-.05-1.33-.15-2.51-.15-3.68V367.77a31.1,31.1,0,0,0-.37-3.48V273.57a36.08,36.08,0,0,0,.38-3.75V2.26A15.24,15.24,0,0,1,1.07.37Q115.72,91.38,230,182l19-15.11,19.18-15.21,19-15.07,19.16-15.22,19-15.06,19-15.06,19.17-15.22,19-15.07,19.17-15.21,19-15.07,19.13-15.23c6.29-5,12.5-10,19.3-15.24V3.69l.06,272.85V362a5.26,5.26,0,0,1-2.14,4.66q-25.74,20.25-51.35,40.68l-116.3,92.34c-.54.43-1,.91-1.76,1.53l2.89,2.35L507.93,676.12c2.74,2.17,5.54,4.27,8.32,6.41V818.85a17.45,17.45,0,0,1-2.41-1.38Q442.41,760.82,371,704.12L172.14,546.31l-54.14-43C117.36,502.8,116.67,502.36,116,501.92Zm-.23-1.51c3.38-2,169.11-133.78,170.14-135.18-.12-.09-.25-.24-.37-.24q-83.87,0-167.71-.05a15.46,15.46,0,0,0-1.67.15c-.06,0-.12.09-.18.14l-.21.2Zm228.45-227v-45c-3.31,1.93-55.81,43.83-56.69,45.18C290.41,274.06,342.46,273.92,344.22,273.39Zm-171.85.27.21-.47-53.51-42.47c-.93-.74-1.92-1.41-2.88-2.11a.45.45,0,0,0-.23,0,1.12,1.12,0,0,0-.22.16v44.88Z" transform="translate(-0.25 -0.25)"/></g></g></g></svg>